<svg width="71" height="71" viewBox="0 0 71 71" fill="none" xmlns="http://www.w3.org/2000/svg">
<g filter="url(#filter0_f_82_31)">
<path d="M35.3911 70.3911C54.7211 70.3911 70.3911 54.7211 70.3911 35.3911C70.3911 16.0611 54.7211 0.391113 35.3911 0.391113C16.0611 0.391113 0.391113 16.0611 0.391113 35.3911C0.391113 54.7211 16.0611 70.3911 35.3911 70.3911Z" fill="url(#paint0_radial_82_31)"/>
<path d="M39.6187 22.2534H30.8169V32.5222H39.6187V22.2534Z" fill="#E89A7C"/>
<path d="M16.3911 63.5746V43.0371C16.3911 34.3983 19.651 29.3454 26.1709 27.8784H44.2634C50.7833 29.3454 54.0432 34.3983 54.0432 43.0371V63.5746H16.3911Z" fill="#E89A7C"/>
<path d="M35.2173 24.6998C40.0784 24.6998 44.0191 20.7591 44.0191 15.898C44.0191 11.0369 40.0784 7.09619 35.2173 7.09619C30.3562 7.09619 26.4155 11.0369 26.4155 15.898C26.4155 20.7591 30.3562 24.6998 35.2173 24.6998Z" fill="#E89A7C"/>
<path opacity="0.42" d="M35.2178 53.549C41.0241 53.549 45.7311 48.842 45.7311 43.0357C45.7311 37.2294 41.0241 32.5225 35.2178 32.5225C29.4115 32.5225 24.7046 37.2294 24.7046 43.0357C24.7046 48.842 29.4115 53.549 35.2178 53.549Z" stroke="#FBEFD6" stroke-width="0.366741"/>
<path opacity="0.22" d="M35.2171 57.4616C43.1839 57.4616 49.6423 51.0033 49.6423 43.0365C49.6423 35.0697 43.1839 28.6113 35.2171 28.6113C27.2504 28.6113 20.792 35.0697 20.792 43.0365C20.792 51.0033 27.2504 57.4616 35.2171 57.4616Z" stroke="#FBEFD6" stroke-width="0.366741"/>
<g filter="url(#filter1_f_82_31)">
<path d="M35.2168 50.1269C39.1327 50.1269 42.3071 46.9525 42.3071 43.0366C42.3071 39.1207 39.1327 35.9463 35.2168 35.9463C31.3009 35.9463 28.1265 39.1207 28.1265 43.0366C28.1265 46.9525 31.3009 50.1269 35.2168 50.1269Z" fill="url(#paint1_radial_82_31)"/>
</g>
<path d="M35.2176 46.9361C37.3713 46.9361 39.1172 45.1901 39.1172 43.0364C39.1172 40.8827 37.3713 39.1367 35.2176 39.1367C33.0638 39.1367 31.3179 40.8827 31.3179 43.0364C31.3179 45.1901 33.0638 46.9361 35.2176 46.9361Z" fill="#FDF2DA"/>
</g>
<defs>
<filter id="filter0_f_82_31" x="-7.72774e-05" y="-7.72774e-05" width="70.7824" height="70.7824" filterUnits="userSpaceOnUse" color-interpolation-filters="sRGB">
<feFlood flood-opacity="0" result="BackgroundImageFix"/>
<feBlend mode="normal" in="SourceGraphic" in2="BackgroundImageFix" result="shape"/>
<feGaussianBlur stdDeviation="0.195595" result="effect1_foregroundBlur_82_31"/>
</filter>
<filter id="filter1_f_82_31" x="23.2366" y="31.0564" width="23.9604" height="23.9604" filterUnits="userSpaceOnUse" color-interpolation-filters="sRGB">
<feFlood flood-opacity="0" result="BackgroundImageFix"/>
<feBlend mode="normal" in="SourceGraphic" in2="BackgroundImageFix" result="shape"/>
<feGaussianBlur stdDeviation="2.44494" result="effect1_foregroundBlur_82_31"/>
</filter>
<radialGradient id="paint0_radial_82_31" cx="0" cy="0" r="1" gradientUnits="userSpaceOnUse" gradientTransform="translate(35.3911 35.3911) scale(35)">
<stop stop-color="#AED3C4" stop-opacity="0.95"/>
<stop offset="0.5" stop-color="#AED3C4" stop-opacity="0.5"/>
<stop offset="1" stop-color="#AED3C4" stop-opacity="0"/>
</radialGradient>
<radialGradient id="paint1_radial_82_31" cx="0" cy="0" r="1" gradientUnits="userSpaceOnUse" gradientTransform="translate(35.2168 42.044) scale(8.79201)">
<stop stop-color="#FCEAC6"/>
<stop offset="1" stop-color="#F1CF93"/>
</radialGradient>
</defs>
</svg>
