<svg width="1280" height="454" viewBox="0 0 1280 454" fill="none" xmlns="http://www.w3.org/2000/svg">
<g clip-path="url(#clip0_9_510)">
<rect width="1280" height="454" rx="25" fill="#FFFCF1"></rect>
<path opacity="0.2" d="M417.78 -99.4405C417.848 -98.9452 417.917 -98.45 417.986 -97.9547C438.594 -100.543 459.67 -102.23 480.41 -103.178C513.354 -104.549 546.45 -104.44 578.84 -98.9897C608.703 -94.4046 652.003 -78.5699 642.315 -42.6476C638.427 -19.1549 607.77 -8.91045 607.853 18.5898C607.127 33.5245 617.352 45.2105 618.587 58.388C622.005 78.9611 616.112 102.437 595.938 110.215C576.853 118.344 555.098 117.713 534.063 116.682C491.898 113.968 449.959 106.286 407.428 103.438C381.937 101.776 355.814 101.415 330.506 106.77C297.456 113.342 263.198 106.486 229.45 102.65C212.504 100.803 195.215 98.5974 177.933 101.896C169.458 103.596 160.509 107.695 155.448 115.421C150.333 123.052 149.369 132.458 149.752 141.077C150.856 160.524 159.142 178.067 161.728 196.425C164.418 277.536 70.4873 310.568 4.81807 336.306C-14.8572 343.187 -34.8798 349.319 -55.1663 354.269C-55.0554 354.756 -54.9446 355.244 -54.8337 355.731C-34.4071 350.92 -14.3245 344.933 5.46577 338.172C41.2975 325.753 76.621 310.806 108.277 289.491C138.838 268.91 170.702 236.522 164.975 195.987C162.325 176.948 154.176 159.387 153.248 140.923C151.382 124.097 161.475 107.565 178.678 105.484C194.985 102.392 212.174 104.525 229.001 106.421C262.632 110.281 297.013 117.385 331.34 110.644C356.015 105.44 381.85 105.773 407.158 107.429C449.414 110.252 491.293 117.896 533.836 120.573C555.111 121.54 577.104 122.331 597.492 113.648C619.428 105.276 625.898 78.7931 622.144 57.9163C620.511 43.427 610.512 32.1012 611.297 18.6415C610.479 -6.00482 640.607 -16.4433 645.386 -41.9714C650.077 -58.8627 641.129 -77.4237 626.406 -85.7576C612.102 -94.714 595.468 -98.7633 579.282 -101.574C546.524 -106.883 513.34 -106.758 480.315 -105.15C459.523 -104.049 438.447 -102.205 417.78 -99.4405Z" fill="#F689A6"></path>
<path d="M668.637 505.488C663.491 559.038 728.696 657.3 764.804 693.178C809.272 737.36 859.881 727.953 913.782 706.368C990.795 675.518 1174.55 562.018 1246.74 521.484C1296.47 493.559 1370.18 471.117 1412.96 434.127C1468.6 386.014 1418.5 284.988 1398.78 231.139C1374.56 165.012 1363.35 116.77 1283.01 133.004C1231.89 143.33 1175.28 179.443 1128.18 201.807C1063.45 232.538 890.408 343.985 829.456 381.794C791.013 405.655 669.934 440.507 668.637 505.488Z" fill="#FFA1C3"></path>
<ellipse cx="1117.69" cy="367" rx="81.5" ry="5" fill="#E03774"></ellipse>
<ellipse cx="1037.69" cy="412" rx="40.5" ry="5" fill="#E03774"></ellipse>
<path d="M862.748 475.762C866.528 473.704 870.995 473.477 875.193 472.535C898.115 467.389 909.967 442.621 918.576 420.763C932.468 385.495 946.361 350.224 960.253 314.956C965.443 301.781 971.12 287.943 982.35 279.318C1000.35 265.5 1025.81 269.6 1047.99 274.366L1075.84 357.704L1009.74 339.751C987.092 375.871 961.123 420.04 938.864 456.38C932.497 466.775 925.764 477.545 915.408 483.976C901.884 492.375 884.855 491.818 868.956 490.989C864.85 490.775 860.001 490.106 858.117 486.451C856.149 482.628 858.969 477.823 862.748 475.762Z" fill="#98B7AC"></path>
<path d="M862.539 475.38C868.363 472.354 875.109 472.899 880.973 470.089C909.173 457.576 916.042 415.925 926.992 389.651C935.869 365.612 945.345 341.811 955.447 318.257C962.782 300.592 971.3 280.001 990.609 272.615C1009.1 265.237 1029.58 269.307 1048.29 272.958L1049.08 273.117L1049.36 273.913C1058.52 299.927 1071.71 336.428 1081.25 362.58C1056.98 356.615 1032.79 350.221 1008.62 343.919L1013.4 342.047L997.704 368.467C982.295 393.986 965.257 421.934 949.324 446.926C940.919 459.491 932.777 474.675 920.146 483.619C906.944 493.085 890.016 493.049 874.545 492.088C869.427 491.545 863.777 492.174 859.368 488.861C854.581 484.931 857.776 477.739 862.539 475.38ZM862.958 476.147C858.857 478.277 855.817 484.616 860.089 487.991C864.127 490.97 869.798 490.113 874.613 490.425C889.527 490.737 905.511 489.584 917.227 479.79C928.309 470.477 935.051 455.002 942.464 442.715C957.313 417.096 974.303 388.968 989.86 363.575C990.581 362.417 1007.63 334.982 1007.79 334.719C1030.79 341.233 1053.81 347.63 1076.73 354.401L1072.59 358.793C1064.91 334.643 1054.46 298.59 1046.62 274.828L1047.68 275.781C1029.44 271.852 1009.52 267.893 991.937 275.687C973.975 283.625 967.75 303.495 961.519 320.647C957.183 332.706 952.7 344.707 948.025 356.633C938.755 380.539 928.834 404.093 918.296 427.574C912.842 439.276 906.556 450.949 897.435 460.254C891.758 466.059 884.66 470.611 876.767 472.628C872.221 473.992 867.144 473.874 862.958 476.147Z" fill="#F2E5DC"></path>
<path d="M1103.11 102.435C1085.93 103.872 1069.71 114.007 1060.88 128.811C1052.06 143.615 1050.86 162.704 1057.76 178.495C1064.07 192.93 1047.31 206.54 1056.08 219.622C1081.15 257.003 1046.49 319.501 1072.25 356.402C1077.4 363.771 1092.79 362.164 1100.5 363.122C1114.91 364.916 1129.62 366.201 1143.88 362.648C1188.83 351.448 1185.61 300.835 1177.42 264.65C1171.85 240.009 1163.36 215.853 1161.42 190.665C1160 172.233 1162.05 153.209 1156.34 135.629C1150.62 118.051 1133.29 99.9096 1103.11 102.435Z" fill="#98B7AC"></path>
<path d="M1103.14 102.872C1070.17 105.788 1048.44 138.496 1058.14 169.872C1058.79 172.135 1059.8 174.641 1060.76 176.81C1064.84 185.062 1061.82 194.548 1059.13 202.343C1057.55 207.594 1056.31 212.394 1059.06 216.955C1063.63 224.005 1066.65 232.018 1067.89 240.282C1073.92 278.751 1052.92 316.917 1071.22 352.216C1072.45 354.057 1073.82 356.737 1075.76 357.802C1083.37 362.08 1092.45 360.451 1100.98 361.285C1165.23 369.567 1186.52 337.867 1175.27 277.062C1170.18 249.52 1159.84 222.695 1157.53 194.285C1156.3 180.253 1157.76 165.98 1156.81 152.044C1155.78 121.47 1134.23 100.18 1103.14 102.872ZM1103.07 102.001C1135.02 98.8078 1158.83 119.99 1162.53 151.393C1164.74 165.697 1164.29 179.938 1165.91 193.459C1167.53 207.058 1170.78 220.544 1174.46 234.058C1183.2 267.643 1194.77 306.713 1178.8 340.177C1163.95 369.509 1128.79 369.908 1100.52 365.016C1091.03 363.459 1076.35 365.873 1070.29 355.876L1068.85 353.577C1057.1 331.954 1060.9 306.327 1061.96 282.799C1063 261.963 1064.52 240.206 1053.12 222.246C1043.07 207.996 1057.95 194.598 1055.17 181.599C1040.21 145.177 1064.04 105.695 1103.07 102.001Z" fill="#F2E5DC"></path>
<path d="M1144.09 262.829C1118.95 221.885 1084.29 186.821 1043.65 161.198C1031.41 153.483 1015.46 146.601 1003.16 154.218C989.836 162.47 990.097 181.799 993.42 197.117C1003 241.252 1024.33 281.769 1043.55 322.635C1049.17 334.565 1054.73 347.084 1054.49 360.267C1054.25 373.449 1046.47 387.452 1033.64 390.503C1029.2 391.559 1024.44 391.273 1020.2 392.962C1015.95 394.651 1012.35 399.554 1014.36 403.656C1016.25 407.523 1021.48 407.992 1025.78 407.895C1037.56 407.626 1049.34 407.097 1061.09 406.307C1071.33 405.621 1082.59 404.245 1089.47 396.631C1095.22 390.26 1096.4 381.112 1097.32 372.577C1099.14 355.602 1100.97 338.584 1100.82 321.514C1100.53 288.336 1092.66 255.247 1077.97 225.496" fill="#98B7AC"></path>
<path d="M1143.72 263.057C1122.1 231.953 1096.09 204.001 1065.82 181.268C1054.03 172.599 1041.52 163.211 1028.18 157.571C1018.53 153.644 1007.69 152.934 1000.61 160.879C981.13 182.779 1012.28 252.992 1023.61 277.049C1030.08 290.822 1037.19 304.294 1043.99 317.957C1054.98 338.477 1066.43 365.15 1048.63 385.723C1044.42 390.579 1037.99 394.203 1031.53 395.015C1027.12 395.76 1018.53 395.617 1018.08 401.406C1018.72 403.042 1020.86 403.278 1022.99 403.455C1024.38 403.577 1026.83 403.412 1028.27 403.336L1039.62 402.714C1051.33 401.473 1072.29 403.004 1082.13 396.687C1091.32 391.241 1091.99 379.749 1093.19 369.937L1094.52 358.621C1100.75 313.525 1096.27 267.712 1077.58 225.69L1078.37 225.303C1101.03 265.494 1108.12 313.764 1102.95 359.457C1101.52 371.042 1102.1 383.973 1096.39 394.734C1085.11 414.338 1059.14 410.283 1039.99 411.819L1028.51 412.223C1021.36 412.821 1011.19 411.721 1009.63 402.745C1008.62 393.859 1017.1 388.258 1024.69 387.637C1032.45 387.022 1037.77 386.013 1042.9 380.519C1052.72 369.95 1052.5 354.225 1048.04 340.924C1034.83 305.403 1016.32 271.78 1003.35 235.973C998.038 221.602 993.193 207.146 989.985 191.891C988.648 184.198 988.086 176.138 990 168.038C992.714 154.731 1005.36 145.441 1018.96 147.317C1031.16 148.605 1041.8 155.146 1051.66 161.794C1089.91 187.405 1122.5 222.262 1144.47 262.6L1143.72 263.057Z" fill="#F2E5DC"></path>
<path d="M1139.8 112.182C1139.8 112.182 1173.14 139.313 1153.23 174.489C1133.32 209.665 1056.99 232.197 1001.24 225.576C971.37 222.94 961.21 189.808 991.512 181.152C1015.17 204.354 1048.23 190.417 1075.84 179.133C1103.45 167.85 1117.79 136.655 1117.79 136.655" fill="#98B7AC"></path>
<path d="M1140.08 111.844C1161.46 127.504 1169.9 155.228 1155.1 178.514C1139.54 202.539 1110.7 213.148 1084.21 219.698C1059.16 225.576 1033.68 229.373 1007.74 228.642C1001.14 228.383 994.208 228.135 987.928 225.473C962.632 214.898 962.826 184.577 990.294 176.892L992.633 176.169L994.614 177.99C1013 195.541 1039.19 188.612 1060.93 180.799C1063.86 179.737 1071.32 177.024 1074.14 175.964C1081.09 173.263 1087.62 169.474 1093.46 164.634C1102.87 156.906 1110.95 147.181 1117.39 136.476L1118.19 136.84C1115.86 142.776 1112.72 148.324 1109.25 153.693C1100.5 167.307 1087.77 178.559 1072.53 184.513C1057.73 190.989 1043.02 197.119 1026.12 198.266C1012.52 199.361 997.988 194.182 988.408 184.318L992.728 185.414C987.241 186.9 982.176 189.623 979.429 193.778C973.194 203.233 981.02 215.27 990.568 219.577C995.962 222.395 1002.04 223.003 1008.11 223.777C1045.64 228.238 1084.86 219.398 1117.57 200.634C1128.29 194.439 1138.72 187.434 1146.24 178.126C1163.28 157.14 1157.53 131.264 1139.52 112.521L1140.08 111.844Z" fill="#F2E5DC"></path>
<path d="M1122.57 54.0645C1117.79 32.8914 1095.52 20.1006 1075.44 28.3288C1065.45 32.4203 1055.96 41.8626 1056.08 62.9867C1056.33 107.455 1079.94 136.151 1103.57 120.729C1118.77 110.809 1128.09 78.5045 1122.57 54.0645Z" fill="#98B7AC"></path>
<path d="M1122.14 54.1606C1117.54 32.3516 1090.43 23.5743 1072.3 34.0584C1063.13 38.9689 1058.14 49.4513 1057.56 59.8376C1056.71 76.0784 1060.86 92.8701 1069.81 106.355C1074.94 114.226 1083.17 121.922 1092.83 120.175C1102.65 118.332 1108.83 110.013 1113.22 101.35C1120.38 87.021 1125.6 70.4359 1122.14 54.1606ZM1123 53.9685C1125.33 65.0525 1126.23 76.4716 1125.06 87.8418C1123.71 99.2791 1120 110.93 1111.3 120.28C1102.26 130.231 1086.19 132.716 1075.35 123.975C1065.42 116.482 1060.61 104.994 1057.95 93.4916C1055.53 82.2482 1054.74 71.0356 1054.75 59.7143C1054.82 53.8779 1055.5 48.1303 1057.45 42.5512C1061.29 30.7407 1073.38 22.3476 1085.81 22.0432C1104.32 21.0611 1119.28 36.9921 1123 53.9685Z" fill="#F2E5DC"></path>
<path d="M74.368 73.704C74.0693 76.9467 73.1093 79.784 71.488 82.216C69.9093 84.648 67.7973 86.5253 65.152 87.848C62.5067 89.1707 59.4773 89.832 56.064 89.832C51.7547 89.832 48.0213 88.872 44.864 86.952C41.7067 84.9893 39.2747 82.2373 37.568 78.696C35.8613 75.1547 35.008 70.9733 35.008 66.152C35.008 61.3307 35.84 57.1707 37.504 53.672C39.2107 50.1307 41.6 47.4 44.672 45.48C47.744 43.5173 51.3707 42.536 55.552 42.536C59.1787 42.536 62.3787 43.1973 65.152 44.52C67.9253 45.8427 70.144 47.72 71.808 50.152C73.5147 52.584 74.5387 55.4427 74.88 58.728H68.032C67.776 56.5947 67.0933 54.7387 65.984 53.16C64.8747 51.5813 63.4453 50.3653 61.696 49.512C59.9467 48.616 57.984 48.168 55.808 48.168C52.992 48.168 50.5387 48.9147 48.448 50.408C46.3573 51.8587 44.7147 53.928 43.52 56.616C42.368 59.304 41.792 62.4827 41.792 66.152C41.792 69.7787 42.368 72.9573 43.52 75.688C44.7147 78.376 46.3787 80.4667 48.512 81.96C50.6453 83.4533 53.1627 84.2 56.064 84.2C58.1547 84.2 60.0107 83.7733 61.632 82.92C63.296 82.0667 64.64 80.8507 65.664 79.272C66.688 77.6507 67.3067 75.7947 67.52 73.704H74.368ZM95.426 54.888C98.626 54.888 101.357 55.592 103.618 57C105.879 58.3653 107.607 60.3707 108.802 63.016C109.997 65.6187 110.594 68.7547 110.594 72.424C110.594 76.0507 110.018 79.1653 108.866 81.768C107.714 84.328 106.05 86.312 103.874 87.72C101.698 89.0853 99.074 89.768 96.002 89.768C94.466 89.768 93.0367 89.5547 91.714 89.128C90.3913 88.744 89.1967 88.168 88.13 87.4C87.106 86.5893 86.2953 85.6293 85.698 84.52H85.57L85.89 89.64V102.824H79.618V55.72H86.722L85.634 59.816H85.762C86.5727 58.28 87.8313 57.0853 89.538 56.232C91.2873 55.336 93.25 54.888 95.426 54.888ZM85.89 72.424C85.89 75.0693 86.2527 77.352 86.978 79.272C87.746 81.1493 88.8127 82.6 90.178 83.624C91.5433 84.648 93.186 85.16 95.106 85.16C97.026 85.16 98.6473 84.648 99.97 83.624C101.335 82.6 102.359 81.1493 103.042 79.272C103.767 77.352 104.13 75.0693 104.13 72.424C104.13 69.736 103.746 67.432 102.978 65.512C102.253 63.5493 101.186 62.0773 99.778 61.096C98.4127 60.072 96.7273 59.56 94.722 59.56C92.8873 59.56 91.3087 60.072 89.986 61.096C88.6633 62.0773 87.6393 63.5493 86.914 65.512C86.2313 67.432 85.89 69.736 85.89 72.424ZM129.482 89.832C126.325 89.832 123.615 89.1493 121.354 87.784C119.135 86.376 117.429 84.3707 116.234 81.768C115.039 79.1227 114.442 75.9653 114.442 72.296C114.442 68.6693 115.018 65.576 116.17 63.016C117.365 60.4133 119.05 58.4293 121.226 57.064C123.445 55.656 126.09 54.952 129.162 54.952C130.698 54.952 132.127 55.1653 133.45 55.592C134.773 55.976 135.946 56.5733 136.97 57.384C138.037 58.152 138.869 59.0907 139.466 60.2H139.594L139.274 55.72H145.546V89H138.634L139.274 84.84H139.146C138.25 86.4187 136.949 87.656 135.242 88.552C133.535 89.4053 131.615 89.832 129.482 89.832ZM120.97 72.296C120.97 74.856 121.333 77.0533 122.058 78.888C122.783 80.7227 123.829 82.1307 125.194 83.112C126.602 84.0933 128.287 84.584 130.25 84.584C132.127 84.584 133.749 84.0933 135.114 83.112C136.479 82.1307 137.503 80.7227 138.186 78.888C138.911 77.0533 139.274 74.856 139.274 72.296C139.274 69.736 138.911 67.5387 138.186 65.704C137.461 63.8693 136.415 62.4827 135.05 61.544C133.685 60.5627 132.042 60.072 130.122 60.072C128.202 60.072 126.538 60.5627 125.13 61.544C123.765 62.4827 122.719 63.8693 121.994 65.704C121.311 67.5387 120.97 69.736 120.97 72.296ZM151.558 89V55.72H164.55C167.963 55.72 170.63 56.5093 172.55 58.088C174.47 59.624 175.43 61.7787 175.43 64.552C175.43 66.472 174.961 68.0507 174.022 69.288C173.083 70.5253 171.761 71.2933 170.054 71.592V71.72C172.059 72.0187 173.617 72.872 174.726 74.28C175.835 75.6453 176.39 77.416 176.39 79.592C176.39 82.536 175.43 84.84 173.51 86.504C171.633 88.168 168.987 89 165.574 89H151.558ZM157.19 84.2H165.51C167.174 84.2 168.454 83.7733 169.35 82.92C170.289 82.0667 170.758 80.872 170.758 79.336C170.758 77.7147 170.246 76.456 169.222 75.56C168.241 74.664 166.833 74.216 164.998 74.216H157.19V84.2ZM157.19 69.416H164.998C166.491 69.416 167.665 69.032 168.518 68.264C169.371 67.496 169.798 66.408 169.798 65C169.798 63.592 169.35 62.504 168.454 61.736C167.558 60.9253 166.257 60.52 164.55 60.52H157.19V69.416ZM187.8 89H181.528V55.72H187.8V69.864H203.16V55.72H209.432V89H203.16V74.856H187.8V89ZM245.005 78.504C244.578 80.808 243.682 82.8133 242.317 84.52C240.952 86.2267 239.224 87.5493 237.133 88.488C235.042 89.384 232.717 89.832 230.157 89.832C226.957 89.832 224.184 89.128 221.837 87.72C219.49 86.2693 217.677 84.2213 216.397 81.576C215.117 78.9307 214.477 75.816 214.477 72.232C214.477 68.6907 215.117 65.64 216.397 63.08C217.677 60.4773 219.469 58.472 221.773 57.064C224.12 55.656 226.872 54.952 230.029 54.952C233.144 54.952 235.81 55.6133 238.029 56.936C240.29 58.2587 242.04 60.136 243.277 62.568C244.514 64.9573 245.133 67.7947 245.133 71.08V73.32H221.133C221.176 75.752 221.581 77.864 222.349 79.656C223.117 81.4053 224.184 82.7493 225.549 83.688C226.914 84.6267 228.557 85.096 230.477 85.096C232.61 85.096 234.402 84.52 235.853 83.368C237.346 82.1733 238.306 80.552 238.733 78.504H245.005ZM221.325 69.352H238.605C238.605 67.3467 238.264 65.6187 237.581 64.168C236.898 62.7173 235.917 61.608 234.637 60.84C233.357 60.072 231.821 59.688 230.029 59.688C227.512 59.688 225.485 60.5413 223.949 62.248C222.413 63.912 221.538 66.28 221.325 69.352ZM256.678 89H250.406V55.72H256.678V69.864H272.038V55.72H278.31V89H272.038V74.856H256.678V89ZM307.61 55.72H313.882V89H307.61V65H307.482L290.522 89H284.25V55.72H290.522V79.72H290.586L307.61 55.72ZM349.478 78.504C349.051 80.808 348.155 82.8133 346.79 84.52C345.424 86.2267 343.696 87.5493 341.606 88.488C339.515 89.384 337.19 89.832 334.63 89.832C331.43 89.832 328.656 89.128 326.31 87.72C323.963 86.2693 322.15 84.2213 320.87 81.576C319.59 78.9307 318.95 75.816 318.95 72.232C318.95 68.6907 319.59 65.64 320.87 63.08C322.15 60.4773 323.942 58.472 326.246 57.064C328.592 55.656 331.344 54.952 334.502 54.952C337.616 54.952 340.283 55.6133 342.502 56.936C344.763 58.2587 346.512 60.136 347.75 62.568C348.987 64.9573 349.606 67.7947 349.606 71.08V73.32H325.606C325.648 75.752 326.054 77.864 326.822 79.656C327.59 81.4053 328.656 82.7493 330.022 83.688C331.387 84.6267 333.03 85.096 334.95 85.096C337.083 85.096 338.875 84.52 340.326 83.368C341.819 82.1733 342.779 80.552 343.206 78.504H349.478ZM325.798 69.352H343.078C343.078 67.3467 342.736 65.6187 342.054 64.168C341.371 62.7173 340.39 61.608 339.11 60.84C337.83 60.072 336.294 59.688 334.502 59.688C331.984 59.688 329.958 60.5413 328.422 62.248C326.886 63.912 326.011 66.28 325.798 69.352ZM363.223 89V55.72H376.215C379.628 55.72 382.295 56.5093 384.215 58.088C386.135 59.624 387.095 61.7787 387.095 64.552C387.095 66.472 386.626 68.0507 385.687 69.288C384.748 70.5253 383.426 71.2933 381.719 71.592V71.72C383.724 72.0187 385.282 72.872 386.391 74.28C387.5 75.6453 388.055 77.416 388.055 79.592C388.055 82.536 387.095 84.84 385.175 86.504C383.298 88.168 380.652 89 377.239 89H363.223ZM368.855 84.2H377.175C378.839 84.2 380.119 83.7733 381.015 82.92C381.954 82.0667 382.423 80.872 382.423 79.336C382.423 77.7147 381.911 76.456 380.887 75.56C379.906 74.664 378.498 74.216 376.663 74.216H368.855V84.2ZM368.855 69.416H376.663C378.156 69.416 379.33 69.032 380.183 68.264C381.036 67.496 381.463 66.408 381.463 65C381.463 63.592 381.015 62.504 380.119 61.736C379.223 60.9253 377.922 60.52 376.215 60.52H368.855V69.416ZM416.553 55.72H422.825V89H416.553V65H416.425L399.465 89H393.193V55.72H399.465V79.72H399.529L416.553 55.72ZM447.668 79.08C447.668 77.3307 447.092 75.9867 445.94 75.048C444.788 74.1093 443.209 73.64 441.204 73.64H439.092V69.8H441.14C442.804 69.8 444.105 69.3947 445.044 68.584C446.025 67.7307 446.516 66.5787 446.516 65.128C446.516 63.5493 446.004 62.312 444.98 61.416C443.999 60.52 442.655 60.072 440.948 60.072C439.071 60.072 437.599 60.5627 436.532 61.544C435.508 62.5253 434.996 63.8267 434.996 65.448H428.468C428.468 63.2293 428.98 61.3307 430.004 59.752C431.071 58.1733 432.543 56.9787 434.42 56.168C436.297 55.3573 438.452 54.952 440.884 54.952C443.231 54.952 445.3 55.3147 447.092 56.04C448.927 56.7227 450.356 57.7893 451.38 59.24C452.404 60.6907 452.916 62.504 452.916 64.68C452.916 66.3013 452.553 67.752 451.828 69.032C451.145 70.2693 450.121 71.1227 448.756 71.592V71.72C450.463 72.104 451.764 72.9787 452.66 74.344C453.599 75.7093 454.068 77.3947 454.068 79.4C454.068 81.704 453.513 83.624 452.404 85.16C451.295 86.696 449.759 87.8693 447.796 88.68C445.876 89.448 443.657 89.832 441.14 89.832C438.537 89.832 436.233 89.4267 434.228 88.616C432.265 87.7627 430.708 86.5253 429.556 84.904C428.447 83.2827 427.892 81.2987 427.892 78.952H434.42C434.42 80.744 435.017 82.152 436.212 83.176C437.449 84.1573 439.092 84.648 441.14 84.648C443.103 84.648 444.681 84.1573 445.876 83.176C447.071 82.1947 447.668 80.8293 447.668 79.08ZM477.307 92.456C476.411 94.9307 475.345 96.872 474.107 98.28C472.87 99.7307 471.462 100.755 469.883 101.352C468.305 101.992 466.534 102.312 464.571 102.312C463.291 102.312 462.161 102.141 461.179 101.8V96.296C461.521 96.4667 462.033 96.5947 462.715 96.68C463.441 96.808 464.187 96.872 464.955 96.872C466.278 96.872 467.409 96.4453 468.347 95.592C469.329 94.7387 470.118 93.544 470.715 92.008L472.699 87.144L459.195 55.72H465.915L475.771 78.888H475.899L484.091 55.72H490.811L477.307 92.456ZM508.372 89.832C505.215 89.832 502.505 89.1493 500.244 87.784C498.025 86.376 496.319 84.3707 495.124 81.768C493.929 79.1227 493.332 75.9653 493.332 72.296C493.332 68.6693 493.908 65.576 495.06 63.016C496.255 60.4133 497.94 58.4293 500.116 57.064C502.335 55.656 504.98 54.952 508.052 54.952C509.588 54.952 511.017 55.1653 512.34 55.592C513.663 55.976 514.836 56.5733 515.86 57.384C516.927 58.152 517.759 59.0907 518.356 60.2H518.484L518.164 55.72H524.436V89H517.524L518.164 84.84H518.036C517.14 86.4187 515.839 87.656 514.132 88.552C512.425 89.4053 510.505 89.832 508.372 89.832ZM499.86 72.296C499.86 74.856 500.223 77.0533 500.948 78.888C501.673 80.7227 502.719 82.1307 504.084 83.112C505.492 84.0933 507.177 84.584 509.14 84.584C511.017 84.584 512.639 84.0933 514.004 83.112C515.369 82.1307 516.393 80.7227 517.076 78.888C517.801 77.0533 518.164 74.856 518.164 72.296C518.164 69.736 517.801 67.5387 517.076 65.704C516.351 63.8693 515.305 62.4827 513.94 61.544C512.575 60.5627 510.932 60.072 509.012 60.072C507.092 60.072 505.428 60.5627 504.02 61.544C502.655 62.4827 501.609 63.8693 500.884 65.704C500.201 67.5387 499.86 69.736 499.86 72.296ZM557.456 55.72V89H551.184V60.712H539.984V80.488C539.984 83.1333 539.237 85.224 537.744 86.76C536.251 88.2533 534.16 89 531.472 89C530.875 89 530.277 89 529.68 89C529.125 88.9573 528.592 88.9147 528.08 88.872V83.688C528.421 83.7307 528.784 83.7733 529.168 83.816C529.595 83.8587 530 83.88 530.384 83.88C531.451 83.88 532.261 83.5387 532.816 82.856C533.413 82.1733 533.712 81.192 533.712 79.912V55.72H557.456ZM563.481 89V55.72H569.753V66.216H576.473C580.825 66.216 584.195 67.2187 586.585 69.224C588.974 71.1867 590.169 73.9813 590.169 77.608C590.169 81.2347 589.017 84.0507 586.713 86.056C584.451 88.0187 581.23 89 577.049 89H563.481ZM569.753 84.008H576.921C579.054 84.008 580.697 83.4533 581.849 82.344C583.043 81.192 583.641 79.6133 583.641 77.608C583.641 75.6027 583.001 74.0453 581.721 72.936C580.483 71.784 578.734 71.208 576.473 71.208H569.753V84.008ZM601.535 89H595.263V55.72H601.535V69.864H616.895V55.72H623.167V89H616.895V74.856H601.535V89ZM629.108 89V55.72H635.38V66.216H642.1C646.452 66.216 649.823 67.2187 652.212 69.224C654.601 71.1867 655.796 73.9813 655.796 77.608C655.796 81.2347 654.644 84.0507 652.34 86.056C650.079 88.0187 646.857 89 642.676 89H629.108ZM635.38 84.008H642.548C644.681 84.008 646.324 83.4533 647.476 82.344C648.671 81.192 649.268 79.6133 649.268 77.608C649.268 75.6027 648.628 74.0453 647.348 72.936C646.111 71.784 644.361 71.208 642.1 71.208H635.38V84.008ZM659.188 89V55.72H665.46V89H659.188ZM670.828 55.72H677.996L686.508 67.368L694.956 55.72H702.124L690.092 72.36L702.188 89H695.02L686.508 77.352L678.06 89H670.892L682.924 72.36L670.828 55.72ZM41.92 159H35.648V125.72H64.832V159H58.56V130.712H41.92V159ZM84.9495 159.832C81.7922 159.832 79.0828 159.149 76.8215 157.784C74.6028 156.376 72.8962 154.371 71.7015 151.768C70.5068 149.123 69.9095 145.965 69.9095 142.296C69.9095 138.669 70.4855 135.576 71.6375 133.016C72.8322 130.413 74.5175 128.429 76.6935 127.064C78.9122 125.656 81.5575 124.952 84.6295 124.952C86.1655 124.952 87.5948 125.165 88.9175 125.592C90.2402 125.976 91.4135 126.573 92.4375 127.384C93.5042 128.152 94.3362 129.091 94.9335 130.2H95.0615L94.7415 125.72H101.014V159H94.1015L94.7415 154.84H94.6135C93.7175 156.419 92.4162 157.656 90.7095 158.552C89.0028 159.405 87.0828 159.832 84.9495 159.832ZM76.4375 142.296C76.4375 144.856 76.8002 147.053 77.5255 148.888C78.2508 150.723 79.2962 152.131 80.6615 153.112C82.0695 154.093 83.7548 154.584 85.7175 154.584C87.5948 154.584 89.2162 154.093 90.5815 153.112C91.9468 152.131 92.9708 150.723 93.6535 148.888C94.3788 147.053 94.7415 144.856 94.7415 142.296C94.7415 139.736 94.3788 137.539 93.6535 135.704C92.9282 133.869 91.8828 132.483 90.5175 131.544C89.1522 130.563 87.5095 130.072 85.5895 130.072C83.6695 130.072 82.0055 130.563 80.5975 131.544C79.2322 132.483 78.1868 133.869 77.4615 135.704C76.7788 137.539 76.4375 139.736 76.4375 142.296ZM134.016 125.72V130.712H122.048V159H115.776V130.712H103.808V125.72H134.016ZM167.674 125.72V130.712H155.706V159H149.434V130.712H137.466V125.72H167.674ZM199.473 148.504C199.046 150.808 198.15 152.813 196.785 154.52C195.419 156.227 193.691 157.549 191.601 158.488C189.51 159.384 187.185 159.832 184.625 159.832C181.425 159.832 178.651 159.128 176.305 157.72C173.958 156.269 172.145 154.221 170.865 151.576C169.585 148.931 168.945 145.816 168.945 142.232C168.945 138.691 169.585 135.64 170.865 133.08C172.145 130.477 173.937 128.472 176.241 127.064C178.587 125.656 181.339 124.952 184.497 124.952C187.611 124.952 190.278 125.613 192.497 126.936C194.758 128.259 196.507 130.136 197.745 132.568C198.982 134.957 199.601 137.795 199.601 141.08V143.32H175.601C175.643 145.752 176.049 147.864 176.817 149.656C177.585 151.405 178.651 152.749 180.017 153.688C181.382 154.627 183.025 155.096 184.945 155.096C187.078 155.096 188.87 154.52 190.321 153.368C191.814 152.173 192.774 150.552 193.201 148.504H199.473ZM175.793 139.352H193.073C193.073 137.347 192.731 135.619 192.049 134.168C191.366 132.717 190.385 131.608 189.105 130.84C187.825 130.072 186.289 129.688 184.497 129.688C181.979 129.688 179.953 130.541 178.417 132.248C176.881 133.912 176.006 136.28 175.793 139.352ZM220.681 124.888C223.881 124.888 226.612 125.592 228.873 127C231.134 128.365 232.862 130.371 234.057 133.016C235.252 135.619 235.849 138.755 235.849 142.424C235.849 146.051 235.273 149.165 234.121 151.768C232.969 154.328 231.305 156.312 229.129 157.72C226.953 159.085 224.329 159.768 221.257 159.768C219.721 159.768 218.292 159.555 216.969 159.128C215.646 158.744 214.452 158.168 213.385 157.4C212.361 156.589 211.55 155.629 210.953 154.52H210.825L211.145 159.64V172.824H204.873V125.72H211.977L210.889 129.816H211.017C211.828 128.28 213.086 127.085 214.793 126.232C216.542 125.336 218.505 124.888 220.681 124.888ZM211.145 142.424C211.145 145.069 211.508 147.352 212.233 149.272C213.001 151.149 214.068 152.6 215.433 153.624C216.798 154.648 218.441 155.16 220.361 155.16C222.281 155.16 223.902 154.648 225.225 153.624C226.59 152.6 227.614 151.149 228.297 149.272C229.022 147.352 229.385 145.069 229.385 142.424C229.385 139.736 229.001 137.432 228.233 135.512C227.508 133.549 226.441 132.077 225.033 131.096C223.668 130.072 221.982 129.56 219.977 129.56C218.142 129.56 216.564 130.072 215.241 131.096C213.918 132.077 212.894 133.549 212.169 135.512C211.486 137.432 211.145 139.736 211.145 142.424ZM247.303 159H241.031V125.72H247.303V139.864H262.663V125.72H268.935V159H262.663V144.856H247.303V159ZM290.107 124.952C293.478 124.952 296.358 125.656 298.747 127.064C301.179 128.429 303.035 130.413 304.315 133.016C305.595 135.619 306.235 138.755 306.235 142.424C306.235 146.051 305.595 149.165 304.315 151.768C303.035 154.371 301.179 156.376 298.747 157.784C296.358 159.149 293.478 159.832 290.107 159.832C286.737 159.832 283.835 159.149 281.403 157.784C279.014 156.376 277.179 154.371 275.899 151.768C274.619 149.165 273.979 146.051 273.979 142.424C273.979 138.755 274.619 135.619 275.899 133.016C277.179 130.413 279.014 128.429 281.403 127.064C283.835 125.656 286.737 124.952 290.107 124.952ZM280.507 142.424C280.507 144.984 280.87 147.203 281.595 149.08C282.363 150.915 283.451 152.323 284.859 153.304C286.31 154.285 288.059 154.776 290.107 154.776C292.113 154.776 293.841 154.285 295.291 153.304C296.742 152.323 297.851 150.915 298.619 149.08C299.387 147.203 299.771 144.984 299.771 142.424C299.771 139.821 299.387 137.603 298.619 135.768C297.851 133.891 296.742 132.461 295.291 131.48C293.841 130.499 292.113 130.008 290.107 130.008C288.059 130.008 286.31 130.499 284.859 131.48C283.451 132.461 282.363 133.891 281.595 135.768C280.87 137.603 280.507 139.821 280.507 142.424ZM311.346 159V125.72H324.338C327.751 125.72 330.418 126.509 332.338 128.088C334.258 129.624 335.218 131.779 335.218 134.552C335.218 136.472 334.748 138.051 333.81 139.288C332.871 140.525 331.548 141.293 329.842 141.592V141.72C331.847 142.019 333.404 142.872 334.514 144.28C335.623 145.645 336.178 147.416 336.178 149.592C336.178 152.536 335.218 154.84 333.298 156.504C331.42 158.168 328.775 159 325.362 159H311.346ZM316.978 154.2H325.298C326.962 154.2 328.242 153.773 329.138 152.92C330.076 152.067 330.546 150.872 330.546 149.336C330.546 147.715 330.034 146.456 329.01 145.56C328.028 144.664 326.62 144.216 324.786 144.216H316.978V154.2ZM316.978 139.416H324.786C326.279 139.416 327.452 139.032 328.306 138.264C329.159 137.496 329.586 136.408 329.586 135C329.586 133.592 329.138 132.504 328.242 131.736C327.346 130.925 326.044 130.52 324.338 130.52H316.978V139.416ZM356.253 125.72L366.621 150.808H366.749L377.117 125.72H383.709V159H377.437V138.2H377.309L368.477 159H364.829L356.061 138.2H355.933V159H349.661V125.72H356.253ZM419.263 148.504C418.836 150.808 417.94 152.813 416.575 154.52C415.209 156.227 413.481 157.549 411.391 158.488C409.3 159.384 406.975 159.832 404.415 159.832C401.215 159.832 398.441 159.128 396.095 157.72C393.748 156.269 391.935 154.221 390.655 151.576C389.375 148.931 388.735 145.816 388.735 142.232C388.735 138.691 389.375 135.64 390.655 133.08C391.935 130.477 393.727 128.472 396.031 127.064C398.377 125.656 401.129 124.952 404.287 124.952C407.401 124.952 410.068 125.613 412.287 126.936C414.548 128.259 416.297 130.136 417.535 132.568C418.772 134.957 419.391 137.795 419.391 141.08V143.32H395.391C395.433 145.752 395.839 147.864 396.607 149.656C397.375 151.405 398.441 152.749 399.807 153.688C401.172 154.627 402.815 155.096 404.735 155.096C406.868 155.096 408.66 154.52 410.111 153.368C411.604 152.173 412.564 150.552 412.991 148.504H419.263ZM395.583 139.352H412.863C412.863 137.347 412.521 135.619 411.839 134.168C411.156 132.717 410.175 131.608 408.895 130.84C407.615 130.072 406.079 129.688 404.287 129.688C401.769 129.688 399.743 130.541 398.207 132.248C396.671 133.912 395.796 136.28 395.583 139.352ZM454.443 125.72V154.008H458.347V165.784H452.715V159H427.563V165.784H421.931V154.008H425.707C426.859 154.008 427.755 153.667 428.395 152.984C429.077 152.259 429.483 151.213 429.611 149.848L431.915 125.72H454.443ZM434.987 154.008H447.979V130.712H437.995L436.139 149.784C435.968 151.448 435.584 152.856 434.987 154.008ZM486.18 125.72H492.452V159H486.18V135H486.052L469.092 159H462.82V125.72H469.092V149.72H469.156L486.18 125.72ZM504.687 125.72V154.008H519.599V125.72H525.871V154.008H530.031V165.784H523.759V159H498.415V125.72H504.687ZM559.433 125.72H565.705V159H559.433V135H559.305L542.345 159H536.073V125.72H542.345V149.72H542.409L559.433 125.72ZM577.94 159H571.668V125.72H577.94V139.864H593.3V125.72H599.572V159H593.3V144.856H577.94V159ZM633.481 147.928C633.225 150.317 632.5 152.408 631.305 154.2C630.11 155.992 628.532 157.379 626.569 158.36C624.606 159.341 622.324 159.832 619.721 159.832C616.649 159.832 613.982 159.128 611.721 157.72C609.46 156.269 607.71 154.243 606.473 151.64C605.236 148.995 604.617 145.923 604.617 142.424C604.617 138.883 605.236 135.811 606.473 133.208C607.753 130.563 609.524 128.536 611.785 127.128C614.046 125.677 616.734 124.952 619.849 124.952C622.494 124.952 624.82 125.464 626.825 126.488C628.83 127.469 630.452 128.856 631.689 130.648C632.969 132.44 633.737 134.573 633.993 137.048H627.529C627.273 135 626.441 133.357 625.033 132.12C623.625 130.84 621.897 130.2 619.849 130.2C618.1 130.2 616.564 130.712 615.241 131.736C613.918 132.717 612.894 134.125 612.169 135.96C611.486 137.795 611.145 139.949 611.145 142.424C611.145 144.856 611.486 146.989 612.169 148.824C612.894 150.659 613.918 152.088 615.241 153.112C616.564 154.093 618.1 154.584 619.849 154.584C621.769 154.584 623.369 153.987 624.649 152.792C625.972 151.555 626.761 149.933 627.017 147.928H633.481ZM639.108 125.72H645.38V138.712H645.828L659.46 125.72H667.396L651.076 141.272L667.268 159H659.652L645.828 143.64H645.38V159H639.108V125.72ZM696.688 125.72H702.96V159H696.688V135H696.56L679.6 159H673.328V125.72H679.6V149.72H679.664L696.688 125.72ZM708.923 125.72H716.091L724.603 137.368L733.051 125.72H740.219L728.187 142.36L740.283 159H733.115L724.603 147.352L716.155 159H708.987L721.019 142.36L708.923 125.72ZM62.656 195.72V229H56.384V200.712H45.184V220.488C45.184 223.133 44.4373 225.224 42.944 226.76C41.4507 228.253 39.36 229 36.672 229C36.0747 229 35.4773 229 34.88 229C34.3253 228.957 33.792 228.915 33.28 228.872V223.688C33.6213 223.731 33.984 223.773 34.368 223.816C34.7947 223.859 35.2 223.88 35.584 223.88C36.6507 223.88 37.4613 223.539 38.016 222.856C38.6133 222.173 38.912 221.192 38.912 219.912V195.72H62.656ZM98.3125 218.504C97.8858 220.808 96.9898 222.813 95.6245 224.52C94.2592 226.227 92.5312 227.549 90.4405 228.488C88.3498 229.384 86.0245 229.832 83.4645 229.832C80.2645 229.832 77.4912 229.128 75.1445 227.72C72.7978 226.269 70.9845 224.221 69.7045 221.576C68.4245 218.931 67.7845 215.816 67.7845 212.232C67.7845 208.691 68.4245 205.64 69.7045 203.08C70.9845 200.477 72.7765 198.472 75.0805 197.064C77.4272 195.656 80.1792 194.952 83.3365 194.952C86.4512 194.952 89.1178 195.613 91.3365 196.936C93.5978 198.259 95.3472 200.136 96.5845 202.568C97.8218 204.957 98.4405 207.795 98.4405 211.08V213.32H74.4405C74.4832 215.752 74.8885 217.864 75.6565 219.656C76.4245 221.405 77.4912 222.749 78.8565 223.688C80.2218 224.627 81.8645 225.096 83.7845 225.096C85.9178 225.096 87.7098 224.52 89.1605 223.368C90.6538 222.173 91.6138 220.552 92.0405 218.504H98.3125ZM74.6325 209.352H91.9125C91.9125 207.347 91.5712 205.619 90.8885 204.168C90.2058 202.717 89.2245 201.608 87.9445 200.84C86.6645 200.072 85.1285 199.688 83.3365 199.688C80.8192 199.688 78.7925 200.541 77.2565 202.248C75.7205 203.912 74.8458 206.28 74.6325 209.352ZM109.985 229H103.713V195.72H109.985V209.864H125.345V195.72H131.617V229H125.345V214.856H109.985V229ZM168.15 195.72V224.008H172.054V235.784H166.422V229H141.27V235.784H135.638V224.008H139.414C140.566 224.008 141.462 223.667 142.102 222.984C142.785 222.259 143.19 221.213 143.318 219.848L145.622 195.72H168.15ZM148.694 224.008H161.686V200.712H151.702L149.846 219.784C149.675 221.448 149.291 222.856 148.694 224.008ZM199.888 195.72H206.16V229H199.888V205H199.76L182.8 229H176.528V195.72H182.8V219.72H182.864L199.888 195.72ZM218.395 229H212.123V195.72H218.395V209.864H233.755V195.72H240.027V229H233.755V214.856H218.395V229ZM252.24 229H245.968V195.72H270.544V200.712H252.24V229ZM287.482 194.952C290.853 194.952 293.733 195.656 296.122 197.064C298.554 198.429 300.41 200.413 301.69 203.016C302.97 205.619 303.61 208.755 303.61 212.424C303.61 216.051 302.97 219.165 301.69 221.768C300.41 224.371 298.554 226.376 296.122 227.784C293.733 229.149 290.853 229.832 287.482 229.832C284.112 229.832 281.21 229.149 278.778 227.784C276.389 226.376 274.554 224.371 273.274 221.768C271.994 219.165 271.354 216.051 271.354 212.424C271.354 208.755 271.994 205.619 273.274 203.016C274.554 200.413 276.389 198.429 278.778 197.064C281.21 195.656 284.112 194.952 287.482 194.952ZM277.882 212.424C277.882 214.984 278.245 217.203 278.97 219.08C279.738 220.915 280.826 222.323 282.234 223.304C283.685 224.285 285.434 224.776 287.482 224.776C289.488 224.776 291.216 224.285 292.666 223.304C294.117 222.323 295.226 220.915 295.994 219.08C296.762 217.203 297.146 214.984 297.146 212.424C297.146 209.821 296.762 207.603 295.994 205.768C295.226 203.891 294.117 202.461 292.666 201.48C291.216 200.499 289.488 200.008 287.482 200.008C285.434 200.008 283.685 200.499 282.234 201.48C280.826 202.461 279.738 203.891 278.97 205.768C278.245 207.603 277.882 209.821 277.882 212.424ZM308.721 229V195.72H321.713C325.126 195.72 327.793 196.509 329.713 198.088C331.633 199.624 332.593 201.779 332.593 204.552C332.593 206.472 332.123 208.051 331.185 209.288C330.246 210.525 328.923 211.293 327.217 211.592V211.72C329.222 212.019 330.779 212.872 331.889 214.28C332.998 215.645 333.553 217.416 333.553 219.592C333.553 222.536 332.593 224.84 330.673 226.504C328.795 228.168 326.15 229 322.737 229H308.721ZM314.353 224.2H322.673C324.337 224.2 325.617 223.773 326.513 222.92C327.451 222.067 327.921 220.872 327.921 219.336C327.921 217.715 327.409 216.456 326.385 215.56C325.403 214.664 323.995 214.216 322.161 214.216H314.353V224.2ZM314.353 209.416H322.161C323.654 209.416 324.827 209.032 325.681 208.264C326.534 207.496 326.961 206.408 326.961 205C326.961 203.592 326.513 202.504 325.617 201.736C324.721 200.925 323.419 200.52 321.713 200.52H314.353V209.416Z" fill="#8A0032"></path>
<path d="M32.4602 418V416.543H32.8438C33.3892 416.543 33.8132 416.368 34.1158 416.018C34.4183 415.669 34.6357 415.104 34.7678 414.325C34.9041 413.545 34.9957 412.511 35.0426 411.224L35.2727 404.909H43.25V418H41.6648V406.315H36.7812L36.5767 411.531C36.5256 412.903 36.3999 414.071 36.1996 415.034C35.9993 415.997 35.6477 416.732 35.1449 417.239C34.642 417.746 33.9091 418 32.946 418H32.4602ZM49.6613 418.205C48.775 418.205 47.9973 417.994 47.3283 417.572C46.6635 417.15 46.1436 416.56 45.7686 415.801C45.3979 415.043 45.2125 414.156 45.2125 413.142C45.2125 412.119 45.3979 411.227 45.7686 410.464C46.1436 409.701 46.6635 409.109 47.3283 408.687C47.9973 408.265 48.775 408.054 49.6613 408.054C50.5477 408.054 51.3233 408.265 51.9881 408.687C52.6571 409.109 53.177 409.701 53.5477 410.464C53.9227 411.227 54.1102 412.119 54.1102 413.142C54.1102 414.156 53.9227 415.043 53.5477 415.801C53.177 416.56 52.6571 417.15 51.9881 417.572C51.3233 417.994 50.5477 418.205 49.6613 418.205ZM49.6613 416.849C50.3346 416.849 50.8886 416.677 51.3233 416.332C51.7579 415.987 52.0797 415.533 52.2885 414.97C52.4973 414.408 52.6017 413.798 52.6017 413.142C52.6017 412.486 52.4973 411.874 52.2885 411.308C52.0797 410.741 51.7579 410.283 51.3233 409.933C50.8886 409.584 50.3346 409.409 49.6613 409.409C48.9881 409.409 48.4341 409.584 47.9994 409.933C47.5648 410.283 47.243 410.741 47.0342 411.308C46.8254 411.874 46.721 412.486 46.721 413.142C46.721 413.798 46.8254 414.408 47.0342 414.97C47.243 415.533 47.5648 415.987 47.9994 416.332C48.4341 416.677 48.9881 416.849 49.6613 416.849ZM62.444 412.401V413.807H57.0235V412.401H62.444ZM57.3815 408.182V418H55.8729V408.182H57.3815ZM63.5945 408.182V418H62.086V408.182H63.5945ZM71.8692 408.182V409.588H67.318V418H65.8095V408.182H71.8692ZM73.5312 421.682V408.182H74.9886V409.741H75.1676C75.2784 409.571 75.4318 409.354 75.6278 409.089C75.8281 408.821 76.1136 408.582 76.4844 408.374C76.8594 408.161 77.3665 408.054 78.0057 408.054C78.8324 408.054 79.5611 408.261 80.1917 408.674C80.8224 409.087 81.3146 409.673 81.6683 410.432C82.022 411.19 82.1988 412.085 82.1988 413.116C82.1988 414.156 82.022 415.058 81.6683 415.82C81.3146 416.579 80.8246 417.167 80.1981 417.585C79.5717 417.998 78.8494 418.205 78.0312 418.205C77.4005 418.205 76.8956 418.1 76.5163 417.891C76.1371 417.678 75.8451 417.437 75.6406 417.169C75.4361 416.896 75.2784 416.67 75.1676 416.491H75.0398V421.682H73.5312ZM75.0142 413.091C75.0142 413.832 75.1228 414.487 75.3402 415.053C75.5575 415.616 75.875 416.057 76.2926 416.376C76.7102 416.692 77.2216 416.849 77.8267 416.849C78.4574 416.849 78.9836 416.683 79.4055 416.351C79.8317 416.014 80.1513 415.562 80.3643 414.996C80.5817 414.425 80.6903 413.79 80.6903 413.091C80.6903 412.401 80.5838 411.778 80.3707 411.224C80.1619 410.666 79.8444 410.225 79.4183 409.901C78.9964 409.573 78.4659 409.409 77.8267 409.409C77.213 409.409 76.6974 409.565 76.2798 409.876C75.8622 410.183 75.5469 410.613 75.3338 411.167C75.1207 411.717 75.0142 412.358 75.0142 413.091ZM85.4685 415.776L90.1986 408.182H91.9373V418H90.4287V410.406L85.7242 418H83.96V408.182H85.4685V415.776ZM93.1119 420.812V416.594H93.9301C94.1304 416.385 94.303 416.159 94.4479 415.916C94.5927 415.673 94.7185 415.386 94.825 415.053C94.9358 414.717 95.0295 414.308 95.1062 413.826C95.1829 413.34 95.2511 412.754 95.3108 412.068L95.6432 408.182H101.882V416.594H103.39V420.812H101.882V418H94.6204V420.812H93.1119ZM95.6432 416.594H100.373V409.588H97.0494L96.7937 412.068C96.6872 413.095 96.5551 413.992 96.3974 414.759C96.2398 415.526 95.9883 416.138 95.6432 416.594ZM110.478 411.685V413.091H104.75V411.685H110.478ZM118.652 408.182V409.588H114.1V418H112.592V408.182H118.652ZM122.693 418.23C122.071 418.23 121.506 418.113 120.999 417.879C120.492 417.64 120.089 417.297 119.791 416.849C119.493 416.398 119.344 415.852 119.344 415.213C119.344 414.651 119.454 414.195 119.676 413.845C119.898 413.491 120.194 413.214 120.565 413.014C120.935 412.814 121.344 412.665 121.792 412.567C122.244 412.464 122.697 412.384 123.153 412.324C123.75 412.247 124.234 412.19 124.604 412.151C124.979 412.109 125.252 412.038 125.422 411.94C125.597 411.842 125.685 411.672 125.685 411.429V411.378C125.685 410.747 125.512 410.257 125.167 409.908C124.826 409.558 124.308 409.384 123.614 409.384C122.893 409.384 122.329 409.541 121.92 409.857C121.511 410.172 121.223 410.509 121.057 410.866L119.625 410.355C119.881 409.759 120.221 409.294 120.648 408.962C121.078 408.625 121.547 408.391 122.054 408.259C122.565 408.122 123.068 408.054 123.562 408.054C123.878 408.054 124.24 408.092 124.649 408.169C125.062 408.241 125.461 408.393 125.844 408.623C126.232 408.853 126.554 409.2 126.81 409.665C127.065 410.129 127.193 410.751 127.193 411.531V418H125.685V416.67H125.608C125.506 416.884 125.335 417.112 125.096 417.354C124.858 417.597 124.54 417.804 124.144 417.974C123.748 418.145 123.264 418.23 122.693 418.23ZM122.923 416.875C123.52 416.875 124.023 416.758 124.432 416.523C124.845 416.289 125.156 415.987 125.365 415.616C125.578 415.245 125.685 414.855 125.685 414.446V413.065C125.621 413.142 125.48 413.212 125.263 413.276C125.05 413.336 124.802 413.389 124.521 413.436C124.244 413.479 123.974 413.517 123.709 413.551C123.449 413.581 123.239 413.607 123.077 413.628C122.685 413.679 122.318 413.762 121.977 413.877C121.641 413.988 121.368 414.156 121.159 414.382C120.954 414.604 120.852 414.906 120.852 415.29C120.852 415.814 121.046 416.21 121.434 416.479C121.826 416.743 122.322 416.875 122.923 416.875ZM130.915 415.776L135.645 408.182H137.384V418H135.875V410.406L131.171 418H129.406V408.182H130.915V415.776ZM134.648 404.909H136.054C136.054 405.599 135.816 406.164 135.338 406.603C134.861 407.042 134.213 407.261 133.395 407.261C132.59 407.261 131.948 407.042 131.471 406.603C130.998 406.164 130.762 405.599 130.762 404.909H132.168C132.168 405.241 132.259 405.533 132.443 405.785C132.63 406.036 132.948 406.162 133.395 406.162C133.843 406.162 134.162 406.036 134.354 405.785C134.55 405.533 134.648 405.241 134.648 404.909ZM138.558 420.812V416.594H139.377C139.577 416.385 139.749 416.159 139.894 415.916C140.039 415.673 140.165 415.386 140.271 415.053C140.382 414.717 140.476 414.308 140.553 413.826C140.629 413.34 140.698 412.754 140.757 412.068L141.09 408.182H147.328V416.594H148.837V420.812H147.328V418H140.067V420.812H138.558ZM141.09 416.594H145.82V409.588H142.496L142.24 412.068C142.134 413.095 142.002 413.992 141.844 414.759C141.686 415.526 141.435 416.138 141.09 416.594ZM158.81 418.205C157.924 418.205 157.146 417.994 156.477 417.572C155.812 417.15 155.293 416.56 154.918 415.801C154.547 415.043 154.361 414.156 154.361 413.142C154.361 412.119 154.547 411.227 154.918 410.464C155.293 409.701 155.812 409.109 156.477 408.687C157.146 408.265 157.924 408.054 158.81 408.054C159.697 408.054 160.472 408.265 161.137 408.687C161.806 409.109 162.326 409.701 162.697 410.464C163.072 411.227 163.259 412.119 163.259 413.142C163.259 414.156 163.072 415.043 162.697 415.801C162.326 416.56 161.806 417.15 161.137 417.572C160.472 417.994 159.697 418.205 158.81 418.205ZM158.81 416.849C159.484 416.849 160.038 416.677 160.472 416.332C160.907 415.987 161.229 415.533 161.437 414.97C161.646 414.408 161.751 413.798 161.751 413.142C161.751 412.486 161.646 411.874 161.437 411.308C161.229 410.741 160.907 410.283 160.472 409.933C160.038 409.584 159.484 409.409 158.81 409.409C158.137 409.409 157.583 409.584 157.148 409.933C156.714 410.283 156.392 410.741 156.183 411.308C155.974 411.874 155.87 412.486 155.87 413.142C155.87 413.798 155.974 414.408 156.183 414.97C156.392 415.533 156.714 415.987 157.148 416.332C157.583 416.677 158.137 416.849 158.81 416.849ZM168.982 409.588V408.182H176.959V409.588H173.738V418H172.229V409.588H168.982ZM178.62 421.682V408.182H180.077V409.741H180.256C180.367 409.571 180.52 409.354 180.716 409.089C180.916 408.821 181.202 408.582 181.573 408.374C181.948 408.161 182.455 408.054 183.094 408.054C183.921 408.054 184.649 408.261 185.28 408.674C185.911 409.087 186.403 409.673 186.757 410.432C187.11 411.19 187.287 412.085 187.287 413.116C187.287 414.156 187.11 415.058 186.757 415.82C186.403 416.579 185.913 417.167 185.286 417.585C184.66 417.998 183.938 418.205 183.12 418.205C182.489 418.205 181.984 418.1 181.605 417.891C181.225 417.678 180.934 417.437 180.729 417.169C180.524 416.896 180.367 416.67 180.256 416.491H180.128V421.682H178.62ZM180.103 413.091C180.103 413.832 180.211 414.487 180.429 415.053C180.646 415.616 180.963 416.057 181.381 416.376C181.799 416.692 182.31 416.849 182.915 416.849C183.546 416.849 184.072 416.683 184.494 416.351C184.92 416.014 185.24 415.562 185.453 414.996C185.67 414.425 185.779 413.79 185.779 413.091C185.779 412.401 185.672 411.778 185.459 411.224C185.25 410.666 184.933 410.225 184.507 409.901C184.085 409.573 183.554 409.409 182.915 409.409C182.301 409.409 181.786 409.565 181.368 409.876C180.951 410.183 180.635 410.613 180.422 411.167C180.209 411.717 180.103 412.358 180.103 413.091ZM193.165 418.205C192.219 418.205 191.403 417.996 190.717 417.578C190.035 417.156 189.509 416.568 189.138 415.814C188.771 415.055 188.588 414.173 188.588 413.168C188.588 412.162 188.771 411.276 189.138 410.509C189.509 409.737 190.024 409.136 190.685 408.706C191.349 408.271 192.125 408.054 193.011 408.054C193.523 408.054 194.028 408.139 194.526 408.31C195.025 408.48 195.479 408.757 195.888 409.141C196.297 409.52 196.623 410.023 196.866 410.649C197.109 411.276 197.23 412.047 197.23 412.963V413.602H189.662V412.298H195.696C195.696 411.744 195.585 411.25 195.364 410.815C195.146 410.381 194.835 410.038 194.43 409.786C194.03 409.535 193.557 409.409 193.011 409.409C192.411 409.409 191.891 409.558 191.452 409.857C191.017 410.151 190.683 410.534 190.448 411.007C190.214 411.48 190.097 411.987 190.097 412.528V413.398C190.097 414.139 190.224 414.768 190.48 415.283C190.74 415.795 191.1 416.185 191.56 416.453C192.021 416.717 192.555 416.849 193.165 416.849C193.561 416.849 193.919 416.794 194.239 416.683C194.563 416.568 194.842 416.398 195.076 416.172C195.31 415.942 195.492 415.656 195.619 415.315L197.077 415.724C196.923 416.219 196.666 416.653 196.303 417.028C195.941 417.399 195.494 417.689 194.961 417.898C194.428 418.102 193.83 418.205 193.165 418.205ZM205.556 412.401V413.807H200.135V412.401H205.556ZM200.493 408.182V418H198.985V408.182H200.493ZM206.706 408.182V418H205.198V408.182H206.706ZM207.873 420.812V416.594H208.691C208.892 416.385 209.064 416.159 209.209 415.916C209.354 415.673 209.48 415.386 209.586 415.053C209.697 414.717 209.791 414.308 209.867 413.826C209.944 413.34 210.012 412.754 210.072 412.068L210.404 408.182H216.643V416.594H218.152V420.812H216.643V418H209.382V420.812H207.873ZM210.404 416.594H215.135V409.588H211.811L211.555 412.068C211.448 413.095 211.316 413.992 211.159 414.759C211.001 415.526 210.75 416.138 210.404 416.594ZM222.503 418.23C221.881 418.23 221.316 418.113 220.809 417.879C220.302 417.64 219.899 417.297 219.601 416.849C219.303 416.398 219.154 415.852 219.154 415.213C219.154 414.651 219.264 414.195 219.486 413.845C219.708 413.491 220.004 413.214 220.375 413.014C220.745 412.814 221.154 412.665 221.602 412.567C222.054 412.464 222.507 412.384 222.963 412.324C223.56 412.247 224.044 412.19 224.414 412.151C224.789 412.109 225.062 412.038 225.232 411.94C225.407 411.842 225.495 411.672 225.495 411.429V411.378C225.495 410.747 225.322 410.257 224.977 409.908C224.636 409.558 224.118 409.384 223.424 409.384C222.703 409.384 222.139 409.541 221.73 409.857C221.321 410.172 221.033 410.509 220.867 410.866L219.435 410.355C219.691 409.759 220.031 409.294 220.458 408.962C220.888 408.625 221.357 408.391 221.864 408.259C222.375 408.122 222.878 408.054 223.372 408.054C223.688 408.054 224.05 408.092 224.459 408.169C224.872 408.241 225.271 408.393 225.654 408.623C226.042 408.853 226.364 409.2 226.62 409.665C226.875 410.129 227.003 410.751 227.003 411.531V418H225.495V416.67H225.418C225.316 416.884 225.145 417.112 224.906 417.354C224.668 417.597 224.35 417.804 223.954 417.974C223.558 418.145 223.074 418.23 222.503 418.23ZM222.733 416.875C223.33 416.875 223.833 416.758 224.242 416.523C224.655 416.289 224.966 415.987 225.175 415.616C225.388 415.245 225.495 414.855 225.495 414.446V413.065C225.431 413.142 225.29 413.212 225.073 413.276C224.86 413.336 224.612 413.389 224.331 413.436C224.054 413.479 223.784 413.517 223.519 413.551C223.259 413.581 223.049 413.607 222.887 413.628C222.495 413.679 222.128 413.762 221.787 413.877C221.451 413.988 221.178 414.156 220.969 414.382C220.764 414.604 220.662 414.906 220.662 415.29C220.662 415.814 220.856 416.21 221.244 416.479C221.636 416.743 222.132 416.875 222.733 416.875ZM230.341 408.182L232.694 412.196L235.046 408.182H236.785L233.614 413.091L236.785 418H235.046L232.694 414.19L230.341 418H228.603L231.722 413.091L228.603 408.182H230.341ZM242.92 418V408.182H246.934C247.991 408.182 248.83 408.42 249.452 408.898C250.074 409.375 250.386 410.006 250.386 410.79C250.386 411.386 250.209 411.849 249.855 412.177C249.501 412.501 249.048 412.72 248.494 412.835C248.856 412.886 249.207 413.014 249.548 413.219C249.893 413.423 250.179 413.705 250.405 414.062C250.631 414.416 250.744 414.851 250.744 415.366C250.744 415.869 250.616 416.319 250.36 416.715C250.104 417.112 249.738 417.425 249.261 417.655C248.783 417.885 248.212 418 247.548 418H242.92ZM244.351 416.619H247.548C248.067 416.619 248.474 416.496 248.768 416.249C249.062 416.001 249.209 415.665 249.209 415.239C249.209 414.732 249.062 414.333 248.768 414.043C248.474 413.749 248.067 413.602 247.548 413.602H244.351V416.619ZM244.351 412.298H246.934C247.339 412.298 247.686 412.243 247.976 412.132C248.266 412.017 248.487 411.855 248.641 411.646C248.798 411.433 248.877 411.182 248.877 410.892C248.877 410.479 248.704 410.155 248.359 409.92C248.014 409.682 247.539 409.562 246.934 409.562H244.351V412.298ZM264.731 408.182V416.594H266.112V421.17H264.603V418H257.01V408.182H258.518V416.594H263.223V408.182H264.731ZM269.404 415.776L274.134 408.182H275.873V418H274.364V410.406L269.66 418H267.895V408.182H269.404V415.776ZM282.084 421.349V404.909H283.593V421.349H282.084ZM282.084 418.205C281.419 418.205 280.814 418.085 280.269 417.847C279.723 417.604 279.255 417.261 278.863 416.817C278.471 416.37 278.168 415.835 277.955 415.213C277.742 414.591 277.635 413.901 277.635 413.142C277.635 412.375 277.742 411.68 277.955 411.058C278.168 410.432 278.471 409.895 278.863 409.447C279.255 409 279.723 408.657 280.269 408.418C280.814 408.175 281.419 408.054 282.084 408.054H282.544V418.205H282.084ZM282.084 416.849H282.34V409.409H282.084C281.581 409.409 281.145 409.511 280.774 409.716C280.403 409.916 280.096 410.191 279.853 410.54C279.615 410.886 279.436 411.282 279.316 411.729C279.201 412.177 279.144 412.648 279.144 413.142C279.144 413.798 279.248 414.408 279.457 414.97C279.666 415.533 279.988 415.987 280.422 416.332C280.857 416.677 281.411 416.849 282.084 416.849ZM283.593 418.205H283.133V408.054H283.593C284.258 408.054 284.863 408.175 285.408 408.418C285.954 408.657 286.422 409 286.814 409.447C287.206 409.895 287.509 410.432 287.722 411.058C287.935 411.68 288.042 412.375 288.042 413.142C288.042 413.901 287.935 414.591 287.722 415.213C287.509 415.835 287.206 416.37 286.814 416.817C286.422 417.261 285.954 417.604 285.408 417.847C284.863 418.085 284.258 418.205 283.593 418.205ZM283.593 416.849C284.1 416.849 284.537 416.751 284.903 416.555C285.274 416.355 285.579 416.082 285.817 415.737C286.06 415.388 286.239 414.991 286.354 414.548C286.473 414.101 286.533 413.632 286.533 413.142C286.533 412.486 286.429 411.874 286.22 411.308C286.011 410.741 285.689 410.283 285.255 409.933C284.82 409.584 284.266 409.409 283.593 409.409H283.337V416.849H283.593ZM289.808 421.682V408.182H291.265V409.741H291.444C291.555 409.571 291.708 409.354 291.904 409.089C292.104 408.821 292.39 408.582 292.761 408.374C293.136 408.161 293.643 408.054 294.282 408.054C295.109 408.054 295.837 408.261 296.468 408.674C297.099 409.087 297.591 409.673 297.945 410.432C298.298 411.19 298.475 412.085 298.475 413.116C298.475 414.156 298.298 415.058 297.945 415.82C297.591 416.579 297.101 417.167 296.474 417.585C295.848 417.998 295.126 418.205 294.308 418.205C293.677 418.205 293.172 418.1 292.793 417.891C292.413 417.678 292.121 417.437 291.917 417.169C291.712 416.896 291.555 416.67 291.444 416.491H291.316V421.682H289.808ZM291.291 413.091C291.291 413.832 291.399 414.487 291.617 415.053C291.834 415.616 292.151 416.057 292.569 416.376C292.987 416.692 293.498 416.849 294.103 416.849C294.734 416.849 295.26 416.683 295.682 416.351C296.108 416.014 296.428 415.562 296.641 414.996C296.858 414.425 296.967 413.79 296.967 413.091C296.967 412.401 296.86 411.778 296.647 411.224C296.438 410.666 296.121 410.225 295.695 409.901C295.273 409.573 294.742 409.409 294.103 409.409C293.489 409.409 292.974 409.565 292.556 409.876C292.139 410.183 291.823 410.613 291.61 411.167C291.397 411.717 291.291 412.358 291.291 413.091ZM304.225 418.205C303.339 418.205 302.561 417.994 301.892 417.572C301.227 417.15 300.707 416.56 300.332 415.801C299.961 415.043 299.776 414.156 299.776 413.142C299.776 412.119 299.961 411.227 300.332 410.464C300.707 409.701 301.227 409.109 301.892 408.687C302.561 408.265 303.339 408.054 304.225 408.054C305.111 408.054 305.887 408.265 306.552 408.687C307.221 409.109 307.741 409.701 308.111 410.464C308.486 411.227 308.674 412.119 308.674 413.142C308.674 414.156 308.486 415.043 308.111 415.801C307.741 416.56 307.221 417.15 306.552 417.572C305.887 417.994 305.111 418.205 304.225 418.205ZM304.225 416.849C304.898 416.849 305.452 416.677 305.887 416.332C306.322 415.987 306.643 415.533 306.852 414.97C307.061 414.408 307.165 413.798 307.165 413.142C307.165 412.486 307.061 411.874 306.852 411.308C306.643 410.741 306.322 410.283 305.887 409.933C305.452 409.584 304.898 409.409 304.225 409.409C303.552 409.409 302.998 409.584 302.563 409.933C302.128 410.283 301.807 410.741 301.598 411.308C301.389 411.874 301.285 412.486 301.285 413.142C301.285 413.798 301.389 414.408 301.598 414.97C301.807 415.533 302.128 415.987 302.563 416.332C302.998 416.677 303.552 416.849 304.225 416.849ZM310.437 418V408.182H314.451C315.508 408.182 316.347 408.42 316.969 408.898C317.591 409.375 317.902 410.006 317.902 410.79C317.902 411.386 317.726 411.849 317.372 412.177C317.018 412.501 316.564 412.72 316.01 412.835C316.373 412.886 316.724 413.014 317.065 413.219C317.41 413.423 317.696 413.705 317.922 414.062C318.147 414.416 318.26 414.851 318.26 415.366C318.26 415.869 318.133 416.319 317.877 416.715C317.621 417.112 317.255 417.425 316.777 417.655C316.3 417.885 315.729 418 315.064 418H310.437ZM311.868 416.619H315.064C315.584 416.619 315.991 416.496 316.285 416.249C316.579 416.001 316.726 415.665 316.726 415.239C316.726 414.732 316.579 414.333 316.285 414.043C315.991 413.749 315.584 413.602 315.064 413.602H311.868V416.619ZM311.868 412.298H314.451C314.856 412.298 315.203 412.243 315.493 412.132C315.782 412.017 316.004 411.855 316.157 411.646C316.315 411.433 316.394 411.182 316.394 410.892C316.394 410.479 316.221 410.155 315.876 409.92C315.531 409.682 315.056 409.562 314.451 409.562H311.868V412.298ZM323.993 418.205C323.106 418.205 322.329 417.994 321.66 417.572C320.995 417.15 320.475 416.56 320.1 415.801C319.729 415.043 319.544 414.156 319.544 413.142C319.544 412.119 319.729 411.227 320.1 410.464C320.475 409.701 320.995 409.109 321.66 408.687C322.329 408.265 323.106 408.054 323.993 408.054C324.879 408.054 325.655 408.265 326.319 408.687C326.988 409.109 327.508 409.701 327.879 410.464C328.254 411.227 328.441 412.119 328.441 413.142C328.441 414.156 328.254 415.043 327.879 415.801C327.508 416.56 326.988 417.15 326.319 417.572C325.655 417.994 324.879 418.205 323.993 418.205ZM323.993 416.849C324.666 416.849 325.22 416.677 325.655 416.332C326.089 415.987 326.411 415.533 326.62 414.97C326.829 414.408 326.933 413.798 326.933 413.142C326.933 412.486 326.829 411.874 326.62 411.308C326.411 410.741 326.089 410.283 325.655 409.933C325.22 409.584 324.666 409.409 323.993 409.409C323.319 409.409 322.765 409.584 322.331 409.933C321.896 410.283 321.574 410.741 321.365 411.308C321.157 411.874 321.052 412.486 321.052 413.142C321.052 413.798 321.157 414.408 321.365 414.97C321.574 415.533 321.896 415.987 322.331 416.332C322.765 416.677 323.319 416.849 323.993 416.849ZM331.713 415.776L336.443 408.182H338.181V418H336.673V410.406L331.968 418H330.204V408.182H331.713V415.776ZM335.446 404.909H336.852C336.852 405.599 336.613 406.164 336.136 406.603C335.659 407.042 335.011 407.261 334.193 407.261C333.387 407.261 332.746 407.042 332.269 406.603C331.796 406.164 331.559 405.599 331.559 404.909H332.966C332.966 405.241 333.057 405.533 333.24 405.785C333.428 406.036 333.745 406.162 334.193 406.162C334.64 406.162 334.96 406.036 335.152 405.785C335.348 405.533 335.446 405.241 335.446 404.909ZM350.296 415.955L353.722 408.182H355.154L350.91 418H349.683L345.515 408.182H346.921L350.296 415.955ZM346.435 408.182V418H344.927V408.182H346.435ZM354.157 418V408.182H355.666V418H354.157ZM362.003 418.205C361.057 418.205 360.241 417.996 359.555 417.578C358.873 417.156 358.347 416.568 357.976 415.814C357.61 415.055 357.427 414.173 357.427 413.168C357.427 412.162 357.61 411.276 357.976 410.509C358.347 409.737 358.863 409.136 359.523 408.706C360.188 408.271 360.964 408.054 361.85 408.054C362.361 408.054 362.866 408.139 363.365 408.31C363.864 408.48 364.317 408.757 364.726 409.141C365.136 409.52 365.462 410.023 365.704 410.649C365.947 411.276 366.069 412.047 366.069 412.963V413.602H358.501V412.298H364.535C364.535 411.744 364.424 411.25 364.202 410.815C363.985 410.381 363.674 410.038 363.269 409.786C362.868 409.535 362.395 409.409 361.85 409.409C361.249 409.409 360.729 409.558 360.29 409.857C359.856 410.151 359.521 410.534 359.287 411.007C359.052 411.48 358.935 411.987 358.935 412.528V413.398C358.935 414.139 359.063 414.768 359.319 415.283C359.579 415.795 359.939 416.185 360.399 416.453C360.859 416.717 361.394 416.849 362.003 416.849C362.4 416.849 362.758 416.794 363.077 416.683C363.401 416.568 363.68 416.398 363.915 416.172C364.149 415.942 364.33 415.656 364.458 415.315L365.915 415.724C365.762 416.219 365.504 416.653 365.142 417.028C364.78 417.399 364.332 417.689 363.8 417.898C363.267 418.102 362.668 418.205 362.003 418.205ZM366.775 420.812V416.594H367.593C367.794 416.385 367.966 416.159 368.111 415.916C368.256 415.673 368.382 415.386 368.488 415.053C368.599 414.717 368.693 414.308 368.77 413.826C368.846 413.34 368.914 412.754 368.974 412.068L369.306 408.182H375.545V416.594H377.054V420.812H375.545V418H368.284V420.812H366.775ZM369.306 416.594H374.037V409.588H370.713L370.457 412.068C370.35 413.095 370.218 413.992 370.061 414.759C369.903 415.526 369.652 416.138 369.306 416.594ZM380.024 415.776L384.755 408.182H386.493V418H384.985V410.406L380.28 418H378.516V408.182H380.024V415.776ZM396.438 408.182V416.594H397.818V421.17H396.31V418H388.716V408.182H390.225V416.594H394.929V408.182H396.438ZM401.11 415.776L405.841 408.182H407.579V418H406.071V410.406L401.366 418H399.602V408.182H401.11V415.776ZM416.373 412.401V413.807H410.953V412.401H416.373ZM411.311 408.182V418H409.802V408.182H411.311ZM417.524 408.182V418H416.015V408.182H417.524ZM423.855 418.205C422.909 418.205 422.093 417.996 421.407 417.578C420.725 417.156 420.199 416.568 419.828 415.814C419.462 415.055 419.278 414.173 419.278 413.168C419.278 412.162 419.462 411.276 419.828 410.509C420.199 409.737 420.715 409.136 421.375 408.706C422.04 408.271 422.815 408.054 423.702 408.054C424.213 408.054 424.718 408.139 425.217 408.31C425.715 408.48 426.169 408.757 426.578 409.141C426.987 409.52 427.313 410.023 427.556 410.649C427.799 411.276 427.921 412.047 427.921 412.963V413.602H420.352V412.298H426.386C426.386 411.744 426.276 411.25 426.054 410.815C425.837 410.381 425.526 410.038 425.121 409.786C424.72 409.535 424.247 409.409 423.702 409.409C423.101 409.409 422.581 409.558 422.142 409.857C421.707 410.151 421.373 410.534 421.139 411.007C420.904 411.48 420.787 411.987 420.787 412.528V413.398C420.787 414.139 420.915 414.768 421.171 415.283C421.43 415.795 421.791 416.185 422.251 416.453C422.711 416.717 423.246 416.849 423.855 416.849C424.251 416.849 424.609 416.794 424.929 416.683C425.253 416.568 425.532 416.398 425.766 416.172C426.001 415.942 426.182 415.656 426.31 415.315L427.767 415.724C427.614 416.219 427.356 416.653 426.994 417.028C426.631 417.399 426.184 417.689 425.651 417.898C425.119 418.102 424.52 418.205 423.855 418.205Z" fill="#545454"></path>
<line x1="70" y1="391.5" x2="34" y2="391.5" stroke="#FFA1C3" stroke-width="5"></line>
<path opacity="0.3" d="M816.917 281.394C850.017 277.175 883.174 273.411 916.377 270.103C917.734 269.968 919.191 269.854 920.375 270.53C921.763 271.323 922.381 272.966 922.875 274.487C924.912 280.76 926.591 287.149 927.902 293.613C928.075 294.465 928.23 295.399 927.819 296.164C927.464 296.824 926.765 297.21 926.103 297.56C913.988 303.972 901.872 310.384 889.757 316.796C886.249 318.652 882.634 320.543 878.688 320.968C874.713 321.396 870.747 320.299 866.908 319.182C851.507 314.703 836.246 309.74 821.156 304.302C808.844 299.862 796.427 284.005 816.917 281.394Z" fill="#98B7AC"></path>
<path opacity="0.3" d="M868.034 340.357C854.852 325.896 827.181 318.292 808.728 329.64C782.078 346.03 779.207 355.887 773.141 371.773C770.213 379.439 770.231 388.135 773.083 395.791C774.765 396.636 776.619 396.643 778.503 396.201L868.084 342.279C868.104 341.645 868.081 341.003 868.034 340.357Z" fill="#FFA1C3"></path>
<path opacity="0.3" d="M718.903 259.381C717.323 261.66 716.075 263.516 715.805 264.024C712.971 269.373 711.417 275.34 710.506 281.255C707.13 303.176 721.009 319.32 741.284 328.243C765.684 338.983 786.857 334.288 806 317.563C803.35 312.614 797.562 307.778 793.788 303.509C787.389 307.483 781.296 313.515 773.767 315.516C766.302 317.5 758.617 314.998 751.537 312.561C739.124 308.286 727.008 294.179 728.158 280.79C728.821 273.086 733.246 266.56 739.023 261.338C735.521 257.601 731.086 251.414 727.316 248.004C727.107 247.816 722.255 254.548 718.903 259.381Z" fill="#1E1E84"></path>
<path opacity="0.3" d="M782.814 221.769C777.398 223.126 770.138 224.738 765.571 228.236C762.902 230.281 761.487 233.533 759.908 236.418C758.719 238.593 757.876 242.62 756.677 246.107C755.709 249.678 755.375 253.217 755.276 256.927C755.141 261.976 754.446 270.951 757.418 275.702C760.089 279.973 766.555 281.72 771.261 282.203C784.022 283.512 790.56 282.118 798.14 271.71C802.065 266.322 805.648 260.964 806.998 254.371C808.988 244.641 803.241 235.937 798.838 227.662C794.574 219.652 791.352 219.63 782.814 221.769ZM785.885 237.826C788.811 240.426 791.924 246.456 792.561 250.29C793.122 253.672 791.079 257.113 789.094 259.672C786.669 262.797 784.541 267.43 781.281 269.703C778.95 271.329 776.331 270.735 773.775 269.997C766.889 268.008 764.127 260.583 765.14 253.668C766.285 249.691 766.671 244.874 769.846 241.353C772.974 237.887 781.998 234.371 785.885 237.826Z" fill="#F689A6"></path>
<path opacity="0.3" d="M837.597 208.571C832.413 210.761 823.516 219.534 821.5 225.098C819.255 231.297 825.07 237.451 829.095 241.621C835.996 248.772 845.039 259.994 855.264 262.246C867.846 265.017 878.77 254.413 879.144 242.78C879.492 231.958 882.199 215.962 870.883 210.443C861.538 205.886 846.193 201.834 837.597 208.571Z" fill="#1E1E84"></path>
</g>
<defs>
<clipPath id="clip0_9_510">
<rect width="1280" height="454" rx="25" fill="white"></rect>
</clipPath>
</defs>
</svg>