<svg width="70" height="70" viewBox="0 0 70 70" fill="none" xmlns="http://www.w3.org/2000/svg">
<g clip-path="url(#clip0_146_4)">
<path d="M35 70C54.33 70 70 54.33 70 35C70 15.67 54.33 0 35 0C15.67 0 0 15.67 0 35C0 54.33 15.67 70 35 70Z" fill="url(#paint0_radial_146_4)"/>
<g filter="url(#filter0_f_146_4)">
<path d="M4 28.4844H65" stroke="#AED3C4" stroke-width="0.5"/>
<path d="M3 35.4844H66" stroke="#AED3C4" stroke-width="0.5"/>
<path d="M4 42.4844L65 42.5137" stroke="#AED3C4" stroke-width="0.5"/>
<path d="M6 46.4844H63" stroke="#86BCA8" stroke-width="0.65" stroke-linecap="round"/>
<path d="M9.0083 46.3159V47.7579" stroke="#86BCA8" stroke-width="0.3" stroke-linecap="round"/>
<path d="M25.832 46.3159V47.7579" stroke="#86BCA8" stroke-width="0.3" stroke-linecap="round"/>
<path d="M42.6548 46.3159V47.7579" stroke="#86BCA8" stroke-width="0.3" stroke-linecap="round"/>
<path d="M59.478 46.3159V47.7579" stroke="#86BCA8" stroke-width="0.3" stroke-linecap="round"/>
<path d="M9.0083 34.0585L25.8313 39.3458L42.6543 30.4536L59.4773 36.2215" stroke="#6FA994" stroke-linecap="round" stroke-linejoin="round"/>
<path d="M9.00876 36.4618C10.3361 36.4618 11.412 35.3859 11.412 34.0586C11.412 32.7313 10.3361 31.6553 9.00876 31.6553C7.68146 31.6553 6.60547 32.7313 6.60547 34.0586C6.60547 35.3859 7.68146 36.4618 9.00876 36.4618Z" fill="#E89A7C"/>
<path opacity="0.6" d="M9.00876 36.4618C10.3361 36.4618 11.412 35.3859 11.412 34.0586C11.412 32.7313 10.3361 31.6553 9.00876 31.6553C7.68146 31.6553 6.60547 32.7313 6.60547 34.0586C6.60547 35.3859 7.68146 36.4618 9.00876 36.4618Z" stroke="#FBEFD6" stroke-width="0.18883"/>
<path d="M9.00917 35.0193C9.54009 35.0193 9.97048 34.5889 9.97048 34.058C9.97048 33.5271 9.54009 33.0967 9.00917 33.0967C8.47825 33.0967 8.04785 33.5271 8.04785 34.058C8.04785 34.5889 8.47825 35.0193 9.00917 35.0193Z" fill="#FDF2DA"/>
<path d="M25.832 41.749C27.1593 41.749 28.2353 40.673 28.2353 39.3457C28.2353 38.0184 27.1593 36.9424 25.832 36.9424C24.5047 36.9424 23.4287 38.0184 23.4287 39.3457C23.4287 40.673 24.5047 41.749 25.832 41.749Z" fill="#E89A7C"/>
<path opacity="0.6" d="M25.832 41.749C27.1593 41.749 28.2353 40.673 28.2353 39.3457C28.2353 38.0184 27.1593 36.9424 25.832 36.9424C24.5047 36.9424 23.4287 38.0184 23.4287 39.3457C23.4287 40.673 24.5047 41.749 25.832 41.749Z" stroke="#FBEFD6" stroke-width="0.18883"/>
<path d="M25.8319 40.3079C26.3628 40.3079 26.7932 39.8775 26.7932 39.3466C26.7932 38.8156 26.3628 38.3853 25.8319 38.3853C25.301 38.3853 24.8706 38.8156 24.8706 39.3466C24.8706 39.8775 25.301 40.3079 25.8319 40.3079Z" fill="#FDF2DA"/>
<path d="M42.6548 32.8569C43.9821 32.8569 45.058 31.7809 45.058 30.4536C45.058 29.1263 43.9821 28.0503 42.6548 28.0503C41.3275 28.0503 40.2515 29.1263 40.2515 30.4536C40.2515 31.7809 41.3275 32.8569 42.6548 32.8569Z" fill="#E89A7C"/>
<path opacity="0.6" d="M42.6548 32.8569C43.9821 32.8569 45.058 31.7809 45.058 30.4536C45.058 29.1263 43.9821 28.0503 42.6548 28.0503C41.3275 28.0503 40.2515 29.1263 40.2515 30.4536C40.2515 31.7809 41.3275 32.8569 42.6548 32.8569Z" stroke="#FBEFD6" stroke-width="0.18883"/>
<path d="M42.6552 31.4153C43.1861 31.4153 43.6165 30.9849 43.6165 30.454C43.6165 29.9231 43.1861 29.4927 42.6552 29.4927C42.1242 29.4927 41.6938 29.9231 41.6938 30.454C41.6938 30.9849 42.1242 31.4153 42.6552 31.4153Z" fill="#FDF2DA"/>
<path d="M59.4775 38.6244C60.8048 38.6244 61.8808 37.5485 61.8808 36.2212C61.8808 34.8939 60.8048 33.8179 59.4775 33.8179C58.1502 33.8179 57.0742 34.8939 57.0742 36.2212C57.0742 37.5485 58.1502 38.6244 59.4775 38.6244Z" fill="#E89A7C"/>
<path opacity="0.6" d="M59.4775 38.6244C60.8048 38.6244 61.8808 37.5485 61.8808 36.2212C61.8808 34.8939 60.8048 33.8179 59.4775 33.8179C58.1502 33.8179 57.0742 34.8939 57.0742 36.2212C57.0742 37.5485 58.1502 38.6244 59.4775 38.6244Z" stroke="#FBEFD6" stroke-width="0.18883"/>
<path d="M59.4779 37.1829C60.0088 37.1829 60.4392 36.7525 60.4392 36.2216C60.4392 35.6906 60.0088 35.2603 59.4779 35.2603C58.947 35.2603 58.5166 35.6906 58.5166 36.2216C58.5166 36.7525 58.947 37.1829 59.4779 37.1829Z" fill="#FDF2DA"/>
</g>
</g>
<defs>
<filter id="filter0_f_146_4" x="2.7583" y="23.1484" width="109.928" height="25.001" filterUnits="userSpaceOnUse" color-interpolation-filters="sRGB">
<feFlood flood-opacity="0" result="BackgroundImageFix"/>
<feBlend mode="normal" in="SourceGraphic" in2="BackgroundImageFix" result="shape"/>
<feGaussianBlur stdDeviation="0.120851" result="effect1_foregroundBlur_146_4"/>
</filter>
<radialGradient id="paint0_radial_146_4" cx="0" cy="0" r="1" gradientUnits="userSpaceOnUse" gradientTransform="translate(35 35) scale(35)">
<stop stop-color="#AED3C4" stop-opacity="0.95"/>
<stop offset="0.5" stop-color="#AED3C4" stop-opacity="0.5"/>
<stop offset="1" stop-color="#AED3C4" stop-opacity="0"/>
</radialGradient>
<clipPath id="clip0_146_4">
<rect width="70" height="70" fill="white"/>
</clipPath>
</defs>
</svg>
