<svg width="71" height="71" viewBox="0 0 71 71" fill="none" xmlns="http://www.w3.org/2000/svg">
<g filter="url(#filter0_f_82_17)">
<path d="M35.2349 70.2349C54.5648 70.2349 70.2349 54.5648 70.2349 35.2349C70.2349 15.9049 54.5648 0.234863 35.2349 0.234863C15.9049 0.234863 0.234863 15.9049 0.234863 35.2349C0.234863 54.5648 15.9049 70.2349 35.2349 70.2349Z" fill="url(#paint0_radial_82_17)"/>
<path d="M27.6878 15.771C26.2678 24.3628 31.0011 25.0411 35.7345 27.7543" stroke="#DD8366" stroke-width="1.10156" stroke-linecap="round"/>
<path d="M43.7815 15.771C45.2015 24.3628 40.4682 25.0411 35.7349 27.7543" stroke="#DD8366" stroke-width="1.10156" stroke-linecap="round"/>
<path d="M35.7349 27.7539C35.7349 37.2501 43.7815 38.8328 45.6749 46.5202" stroke="#DD8366" stroke-width="1.10156" stroke-linecap="round"/>
<path d="M27.6878 16.9023C28.7334 16.9023 29.5811 16.0924 29.5811 15.0935C29.5811 14.0945 28.7334 13.2847 27.6878 13.2847C26.6421 13.2847 25.7944 14.0945 25.7944 15.0935C25.7944 16.0924 26.6421 16.9023 27.6878 16.9023Z" fill="#DD8366"/>
<path d="M43.781 16.9023C44.8267 16.9023 45.6744 16.0924 45.6744 15.0935C45.6744 14.0945 44.8267 13.2847 43.781 13.2847C42.7354 13.2847 41.8877 14.0945 41.8877 15.0935C41.8877 16.0924 42.7354 16.9023 43.781 16.9023Z" fill="#DD8366"/>
<path d="M46.1477 56.9215C50.1996 56.9215 53.4844 53.7835 53.4844 49.9124C53.4844 46.0414 50.1996 42.9033 46.1477 42.9033C42.0958 42.9033 38.811 46.0414 38.811 49.9124C38.811 53.7835 42.0958 56.9215 46.1477 56.9215Z" fill="#E89A7C"/>
<path d="M46.1477 56.9215C50.1996 56.9215 53.4844 53.7835 53.4844 49.9124C53.4844 46.0414 50.1996 42.9033 46.1477 42.9033C42.0958 42.9033 38.811 46.0414 38.811 49.9124C38.811 53.7835 42.0958 56.9215 46.1477 56.9215Z" stroke="#DD8366" stroke-width="0.440625"/>
<g filter="url(#filter1_f_82_17)">
<path d="M46.1473 53.4163C48.1733 53.4163 49.8157 51.8473 49.8157 49.9118C49.8157 47.9763 48.1733 46.4072 46.1473 46.4072C44.1214 46.4072 42.479 47.9763 42.479 49.9118C42.479 51.8473 44.1214 53.4163 46.1473 53.4163Z" fill="url(#paint1_radial_82_17)"/>
</g>
<path d="M46.1484 51.8404C47.2627 51.8404 48.166 50.9774 48.166 49.9129C48.166 48.8483 47.2627 47.9854 46.1484 47.9854C45.0342 47.9854 44.1309 48.8483 44.1309 49.9129C44.1309 50.9774 45.0342 51.8404 46.1484 51.8404Z" fill="#FDF2DA"/>
</g>
<defs>
<filter id="filter0_f_82_17" x="-0.000136718" y="-0.000136718" width="70.47" height="70.47" filterUnits="userSpaceOnUse" color-interpolation-filters="sRGB">
<feFlood flood-opacity="0" result="BackgroundImageFix"/>
<feBlend mode="normal" in="SourceGraphic" in2="BackgroundImageFix" result="shape"/>
<feGaussianBlur stdDeviation="0.1175" result="effect1_foregroundBlur_82_17"/>
</filter>
<filter id="filter1_f_82_17" x="39.5415" y="43.4697" width="13.2114" height="12.8843" filterUnits="userSpaceOnUse" color-interpolation-filters="sRGB">
<feFlood flood-opacity="0" result="BackgroundImageFix"/>
<feBlend mode="normal" in="SourceGraphic" in2="BackgroundImageFix" result="shape"/>
<feGaussianBlur stdDeviation="1.46875" result="effect1_foregroundBlur_82_17"/>
</filter>
<radialGradient id="paint0_radial_82_17" cx="0" cy="0" r="1" gradientUnits="userSpaceOnUse" gradientTransform="translate(35.2349 35.2349) scale(35)">
<stop stop-color="#AED3C4" stop-opacity="0.95"/>
<stop offset="0.5" stop-color="#AED3C4" stop-opacity="0.5"/>
<stop offset="1" stop-color="#AED3C4" stop-opacity="0"/>
</radialGradient>
<radialGradient id="paint1_radial_82_17" cx="0" cy="0" r="1" gradientUnits="userSpaceOnUse" gradientTransform="translate(46.1473 49.4211) scale(4.54873 4.34565)">
<stop stop-color="#FCEAC6"/>
<stop offset="1" stop-color="#F1CF93"/>
</radialGradient>
</defs>
</svg>
